<svg width="256" height="256" viewBox="0 0 256 256" fill="none" xmlns="http://www.w3.org/2000/svg">
  <defs>
    <radialGradient id="faceGlow" cx="0" cy="0" r="1" gradientUnits="userSpaceOnUse" gradientTransform="translate(128 140) rotate(90) scale(110 118)">
      <stop stop-color="#FFF9EE"/>
      <stop offset="1" stop-color="#F9E5CE"/>
    </radialGradient>
    <linearGradient id="hair" x1="128" y1="42" x2="128" y2="168" gradientUnits="userSpaceOnUse">
      <stop stop-color="#FDFEFF"/>
      <stop offset="1" stop-color="#D9DDEA"/>
    </linearGradient>
    <linearGradient id="leaf" x1="0" y1="0" x2="1" y2="1">
      <stop stop-color="#B9FF83"/>
      <stop offset="1" stop-color="#2C9337"/>
    </linearGradient>
    <linearGradient id="flowerCore" x1="0" y1="0" x2="1" y2="1">
      <stop stop-color="#E6C15D"/>
      <stop offset="1" stop-color="#94621F"/>
    </linearGradient>
    <filter id="shadow" x="0" y="0" width="256" height="256" filterUnits="userSpaceOnUse" color-interpolation-filters="sRGB">
      <feDropShadow dx="0" dy="10" stdDeviation="12" flood-color="#111827" flood-opacity="0.24"/>
    </filter>
  </defs>

  <g filter="url(#shadow)">
    <path d="M70 170C51 162 42 152 38 142C31 124 42 107 56 100C58 82 71 65 94 53C114 43 143 41 162 48C187 57 201 74 205 101C224 108 231 125 226 141C221 157 208 166 188 170L70 170Z" fill="url(#hair)" stroke="#1E2434" stroke-width="8" stroke-linejoin="round"/>
    <path d="M76 173C79 195 96 211 128 211C160 211 177 195 180 173L76 173Z" fill="url(#faceGlow)" stroke="#1E2434" stroke-width="8" stroke-linejoin="round"/>
    <path d="M86 96C82 123 70 136 56 147" stroke="#C8CEDC" stroke-width="8" stroke-linecap="round"/>
    <path d="M170 91C175 118 187 131 202 144" stroke="#C8CEDC" stroke-width="8" stroke-linecap="round"/>
    <path d="M99 61C82 70 72 81 69 98" stroke="#FFFFFF" stroke-width="10" stroke-linecap="round"/>
    <path d="M124 58C118 84 104 104 82 119" stroke="#FFFFFF" stroke-width="12" stroke-linecap="round"/>
    <path d="M153 60C157 83 169 100 189 114" stroke="#FFFFFF" stroke-width="12" stroke-linecap="round"/>
    <path d="M86 180L67 192L73 170" fill="#FFD9BF" stroke="#1E2434" stroke-width="8" stroke-linejoin="round"/>
    <path d="M170 180L189 192L183 170" fill="#FFD9BF" stroke="#1E2434" stroke-width="8" stroke-linejoin="round"/>
    <path d="M58 135L34 144L49 120" fill="#C9FF7F" stroke="#1E2434" stroke-width="8" stroke-linejoin="round"/>
    <path d="M197 173L215 192L189 193" fill="url(#leaf)" stroke="#1E2434" stroke-width="8" stroke-linejoin="round"/>
    <path d="M213 152L233 167L210 175" fill="url(#leaf)" stroke="#1E2434" stroke-width="8" stroke-linejoin="round"/>
    <path d="M200 120L218 103L224 128" fill="url(#leaf)" stroke="#1E2434" stroke-width="8" stroke-linejoin="round"/>
    <path d="M194 96L207 75L218 94" fill="url(#leaf)" stroke="#1E2434" stroke-width="8" stroke-linejoin="round"/>
    <circle cx="97" cy="143" r="23" fill="#2B6D2E"/>
    <circle cx="159" cy="143" r="23" fill="#2B6D2E"/>
    <circle cx="100" cy="146" r="15" fill="#8AED61"/>
    <circle cx="162" cy="146" r="15" fill="#8AED61"/>
    <circle cx="104" cy="141" r="7" fill="#E6FFD8"/>
    <circle cx="166" cy="141" r="7" fill="#E6FFD8"/>
    <circle cx="92" cy="151" r="4" fill="#0B1324"/>
    <circle cx="154" cy="151" r="4" fill="#0B1324"/>
    <path d="M118 177C124 181 132 181 138 177" stroke="#F29B74" stroke-width="7" stroke-linecap="round"/>
    <path d="M112 161H115" stroke="#A56552" stroke-width="8" stroke-linecap="round"/>
    <path d="M141 161H144" stroke="#A56552" stroke-width="8" stroke-linecap="round"/>
    <circle cx="84" cy="159" r="8" fill="#FFC4A8" fill-opacity="0.65"/>
    <circle cx="172" cy="159" r="8" fill="#FFC4A8" fill-opacity="0.65"/>
    <path d="M72 131L53 140L63 116" fill="#FFD9BF" stroke="#1E2434" stroke-width="8" stroke-linejoin="round"/>
    <path d="M184 131L203 140L193 116" fill="#FFD9BF" stroke="#1E2434" stroke-width="8" stroke-linejoin="round"/>
    <path d="M182 70L197 84L180 98L165 84L182 70Z" fill="url(#flowerCore)" stroke="#1E2434" stroke-width="8" stroke-linejoin="round"/>
    <path d="M197 85L214 78L208 98" fill="url(#flowerCore)" stroke="#1E2434" stroke-width="8" stroke-linejoin="round"/>
    <path d="M205 99L221 109L203 117" fill="url(#flowerCore)" stroke="#1E2434" stroke-width="8" stroke-linejoin="round"/>
    <path d="M214 120C223 108 238 110 243 123C228 129 217 135 205 134L214 120Z" fill="#FAFEFF" stroke="#1E2434" stroke-width="8" stroke-linejoin="round"/>
    <path d="M205 133C212 124 227 124 233 136C224 144 212 146 201 144L205 133Z" fill="#FAFEFF" stroke="#1E2434" stroke-width="8" stroke-linejoin="round"/>
    <path d="M223 121L228 138" stroke="#91E86D" stroke-width="8" stroke-linecap="round"/>
    <path d="M214 130L236 129" stroke="#91E86D" stroke-width="8" stroke-linecap="round"/>
  </g>
</svg>
